<svg xmlns="http://www.w3.org/2000/svg" xmlns:xlink="http://www.w3.org/1999/xlink" width="160" height="161"><defs><path d="M86.92 97.23l-28.44 28.45-28.45-28.45 28.45-28.44 28.44 28.44z" id="a"/><path d="M58.48 125.68l-28.45 28.45-28.45-28.45 28.45-28.45 28.45 28.45z" id="b"/><path d="M115.37 125.68l-28.45 28.45-28.44-28.45 28.44-28.45 28.45 28.45z" id="c"/><path d="M1.58 56.89l28.45-28.44 28.45 28.44-28.45 28.45L1.58 56.89z" id="d"/><path d="M30.03 85.34l28.45-28.45 28.44 28.45-28.44 28.45-28.45-28.45z" id="e"/><path d="M58.48 56.89l28.44-28.44 28.45 28.44-28.45 28.45-28.44-28.45z" id="f"/><path d="M86.92 28.45L115.37 0l28.45 28.45-28.45 28.44-28.45-28.44z" id="g"/></defs><use xlink:href="#a" fill-opacity="0" stroke="#000"/><use xlink:href="#a" fill="#d86969"/><use xlink:href="#b" fill="#d86969"/><use xlink:href="#c" fill="#d86969"/><use xlink:href="#d" fill="#69d893"/><use xlink:href="#e" fill="#69d893"/><use xlink:href="#f" fill="#69d893"/><use xlink:href="#g" fill="#69d893"/></svg>
